<mxfile host="app.diagrams.net" agent="Mozilla/5.0 (Windows NT 10.0; Win64; x64) AppleWebKit/537.36 (KHTML, like Gecko) Chrome/135.0.0.0 Safari/537.36" version="26.2.12">
  <diagram name="Halaman-1" id="KeMnyIC-kuxKZWp2eLvQ">
    <mxGraphModel dx="1126" dy="644" grid="1" gridSize="10" guides="1" tooltips="1" connect="1" arrows="1" fold="1" page="1" pageScale="1" pageWidth="827" pageHeight="1169" math="0" shadow="0">
      <root>
        <mxCell id="0" />
        <mxCell id="1" parent="0" />
        <mxCell id="XHGeFI7vCAig2MAGRLho-13" style="edgeStyle=none;rounded=0;orthogonalLoop=1;jettySize=auto;html=1;exitX=1;exitY=0.5;exitDx=0;exitDy=0;entryX=0;entryY=0;entryDx=0;entryDy=0;" edge="1" parent="1" source="XHGeFI7vCAig2MAGRLho-1" target="XHGeFI7vCAig2MAGRLho-14">
          <mxGeometry relative="1" as="geometry">
            <mxPoint x="310" y="180" as="targetPoint" />
          </mxGeometry>
        </mxCell>
        <mxCell id="XHGeFI7vCAig2MAGRLho-1" value="Edy haryanto S.kom,M.Eng" style="ellipse;whiteSpace=wrap;html=1;" vertex="1" parent="1">
          <mxGeometry x="40" y="50" width="120" height="80" as="geometry" />
        </mxCell>
        <mxCell id="XHGeFI7vCAig2MAGRLho-15" style="edgeStyle=none;rounded=0;orthogonalLoop=1;jettySize=auto;html=1;exitX=1;exitY=0.5;exitDx=0;exitDy=0;entryX=0;entryY=1;entryDx=0;entryDy=0;" edge="1" parent="1" source="XHGeFI7vCAig2MAGRLho-2" target="XHGeFI7vCAig2MAGRLho-14">
          <mxGeometry relative="1" as="geometry" />
        </mxCell>
        <mxCell id="XHGeFI7vCAig2MAGRLho-2" value="nid." style="ellipse;whiteSpace=wrap;html=1;" vertex="1" parent="1">
          <mxGeometry x="40" y="200" width="120" height="80" as="geometry" />
        </mxCell>
        <mxCell id="XHGeFI7vCAig2MAGRLho-16" style="edgeStyle=none;rounded=0;orthogonalLoop=1;jettySize=auto;html=1;exitX=1;exitY=0.5;exitDx=0;exitDy=0;" edge="1" parent="1" source="XHGeFI7vCAig2MAGRLho-14" target="XHGeFI7vCAig2MAGRLho-17">
          <mxGeometry relative="1" as="geometry">
            <mxPoint x="420" y="159.58823529411768" as="targetPoint" />
          </mxGeometry>
        </mxCell>
        <mxCell id="XHGeFI7vCAig2MAGRLho-14" value="dosen" style="rounded=0;whiteSpace=wrap;html=1;" vertex="1" parent="1">
          <mxGeometry x="200" y="130" width="120" height="60" as="geometry" />
        </mxCell>
        <mxCell id="XHGeFI7vCAig2MAGRLho-18" style="edgeStyle=none;rounded=0;orthogonalLoop=1;jettySize=auto;html=1;exitX=1;exitY=0.5;exitDx=0;exitDy=0;" edge="1" parent="1" source="XHGeFI7vCAig2MAGRLho-17" target="XHGeFI7vCAig2MAGRLho-19">
          <mxGeometry relative="1" as="geometry">
            <mxPoint x="550" y="159.58823529411768" as="targetPoint" />
          </mxGeometry>
        </mxCell>
        <mxCell id="XHGeFI7vCAig2MAGRLho-17" value="Mengajar" style="rhombus;whiteSpace=wrap;html=1;" vertex="1" parent="1">
          <mxGeometry x="380" y="119.59" width="120" height="80" as="geometry" />
        </mxCell>
        <mxCell id="XHGeFI7vCAig2MAGRLho-20" style="edgeStyle=none;rounded=0;orthogonalLoop=1;jettySize=auto;html=1;exitX=0.5;exitY=0;exitDx=0;exitDy=0;" edge="1" parent="1" source="XHGeFI7vCAig2MAGRLho-19" target="XHGeFI7vCAig2MAGRLho-23">
          <mxGeometry relative="1" as="geometry">
            <mxPoint x="599.999266988392" y="79.99999999999989" as="targetPoint" />
          </mxGeometry>
        </mxCell>
        <mxCell id="XHGeFI7vCAig2MAGRLho-24" style="edgeStyle=none;rounded=0;orthogonalLoop=1;jettySize=auto;html=1;exitX=1;exitY=0.5;exitDx=0;exitDy=0;" edge="1" parent="1" source="XHGeFI7vCAig2MAGRLho-19" target="XHGeFI7vCAig2MAGRLho-26">
          <mxGeometry relative="1" as="geometry">
            <mxPoint x="720" y="159.58823529411768" as="targetPoint" />
          </mxGeometry>
        </mxCell>
        <mxCell id="XHGeFI7vCAig2MAGRLho-27" style="edgeStyle=none;rounded=0;orthogonalLoop=1;jettySize=auto;html=1;exitX=0.5;exitY=1;exitDx=0;exitDy=0;" edge="1" parent="1" source="XHGeFI7vCAig2MAGRLho-19" target="XHGeFI7vCAig2MAGRLho-28">
          <mxGeometry relative="1" as="geometry">
            <mxPoint x="600.0588235294117" y="250" as="targetPoint" />
          </mxGeometry>
        </mxCell>
        <mxCell id="XHGeFI7vCAig2MAGRLho-19" value="Mata kuliah" style="rounded=0;whiteSpace=wrap;html=1;" vertex="1" parent="1">
          <mxGeometry x="540" y="129.58823529411768" width="120" height="60" as="geometry" />
        </mxCell>
        <mxCell id="XHGeFI7vCAig2MAGRLho-23" value="PTI1215" style="ellipse;whiteSpace=wrap;html=1;" vertex="1" parent="1">
          <mxGeometry x="539.999266988392" y="-1.1368683772161603e-13" width="120" height="80" as="geometry" />
        </mxCell>
        <mxCell id="XHGeFI7vCAig2MAGRLho-26" value="basis data" style="ellipse;whiteSpace=wrap;html=1;" vertex="1" parent="1">
          <mxGeometry x="707" y="119.58823529411768" width="120" height="80" as="geometry" />
        </mxCell>
        <mxCell id="XHGeFI7vCAig2MAGRLho-29" style="edgeStyle=none;rounded=0;orthogonalLoop=1;jettySize=auto;html=1;exitX=1;exitY=0.5;exitDx=0;exitDy=0;" edge="1" parent="1" source="XHGeFI7vCAig2MAGRLho-28" target="XHGeFI7vCAig2MAGRLho-30">
          <mxGeometry relative="1" as="geometry">
            <mxPoint x="710" y="299.5882352941177" as="targetPoint" />
          </mxGeometry>
        </mxCell>
        <mxCell id="XHGeFI7vCAig2MAGRLho-31" style="edgeStyle=none;rounded=0;orthogonalLoop=1;jettySize=auto;html=1;exitX=0.5;exitY=1;exitDx=0;exitDy=0;" edge="1" parent="1" source="XHGeFI7vCAig2MAGRLho-28" target="XHGeFI7vCAig2MAGRLho-33">
          <mxGeometry relative="1" as="geometry">
            <mxPoint x="600.0294117647059" y="370" as="targetPoint" />
          </mxGeometry>
        </mxCell>
        <mxCell id="XHGeFI7vCAig2MAGRLho-28" value="Registrasi" style="rhombus;whiteSpace=wrap;html=1;" vertex="1" parent="1">
          <mxGeometry x="535" y="260" width="130" height="80" as="geometry" />
        </mxCell>
        <mxCell id="XHGeFI7vCAig2MAGRLho-30" value="Semester 2" style="ellipse;whiteSpace=wrap;html=1;" vertex="1" parent="1">
          <mxGeometry x="707" y="259.9982352941177" width="120" height="80" as="geometry" />
        </mxCell>
        <mxCell id="XHGeFI7vCAig2MAGRLho-34" style="edgeStyle=none;rounded=0;orthogonalLoop=1;jettySize=auto;html=1;exitX=0.25;exitY=1;exitDx=0;exitDy=0;" edge="1" parent="1" source="XHGeFI7vCAig2MAGRLho-33" target="XHGeFI7vCAig2MAGRLho-35">
          <mxGeometry relative="1" as="geometry">
            <mxPoint x="510" y="530" as="targetPoint" />
          </mxGeometry>
        </mxCell>
        <mxCell id="XHGeFI7vCAig2MAGRLho-36" style="edgeStyle=none;rounded=0;orthogonalLoop=1;jettySize=auto;html=1;exitX=0.75;exitY=1;exitDx=0;exitDy=0;" edge="1" parent="1" source="XHGeFI7vCAig2MAGRLho-33" target="XHGeFI7vCAig2MAGRLho-37">
          <mxGeometry relative="1" as="geometry">
            <mxPoint x="660" y="540" as="targetPoint" />
          </mxGeometry>
        </mxCell>
        <mxCell id="XHGeFI7vCAig2MAGRLho-38" style="edgeStyle=none;rounded=0;orthogonalLoop=1;jettySize=auto;html=1;exitX=0.5;exitY=1;exitDx=0;exitDy=0;" edge="1" parent="1" source="XHGeFI7vCAig2MAGRLho-33" target="XHGeFI7vCAig2MAGRLho-39">
          <mxGeometry relative="1" as="geometry">
            <mxPoint x="600.0588235294117" y="630" as="targetPoint" />
          </mxGeometry>
        </mxCell>
        <mxCell id="XHGeFI7vCAig2MAGRLho-40" style="edgeStyle=none;rounded=0;orthogonalLoop=1;jettySize=auto;html=1;exitX=1;exitY=0.5;exitDx=0;exitDy=0;" edge="1" parent="1" source="XHGeFI7vCAig2MAGRLho-33" target="XHGeFI7vCAig2MAGRLho-41">
          <mxGeometry relative="1" as="geometry">
            <mxPoint x="800" y="439.5882352941177" as="targetPoint" />
          </mxGeometry>
        </mxCell>
        <mxCell id="XHGeFI7vCAig2MAGRLho-33" value="mahasiswa" style="rounded=0;whiteSpace=wrap;html=1;" vertex="1" parent="1">
          <mxGeometry x="539.9994117647059" y="410" width="120" height="60" as="geometry" />
        </mxCell>
        <mxCell id="XHGeFI7vCAig2MAGRLho-35" value="Imam Ardi Perdana" style="ellipse;whiteSpace=wrap;html=1;" vertex="1" parent="1">
          <mxGeometry x="420" y="530" width="120" height="80" as="geometry" />
        </mxCell>
        <mxCell id="XHGeFI7vCAig2MAGRLho-37" value="Nim&lt;div&gt;24241020&lt;/div&gt;" style="ellipse;whiteSpace=wrap;html=1;" vertex="1" parent="1">
          <mxGeometry x="660" y="530" width="120" height="80" as="geometry" />
        </mxCell>
        <mxCell id="XHGeFI7vCAig2MAGRLho-39" value="alamat&lt;div&gt;kecamata sekarbela&lt;/div&gt;" style="ellipse;whiteSpace=wrap;html=1;" vertex="1" parent="1">
          <mxGeometry x="540.0588235294117" y="590" width="120" height="80" as="geometry" />
        </mxCell>
        <mxCell id="XHGeFI7vCAig2MAGRLho-42" style="edgeStyle=none;rounded=0;orthogonalLoop=1;jettySize=auto;html=1;exitX=1;exitY=0.5;exitDx=0;exitDy=0;" edge="1" parent="1" source="XHGeFI7vCAig2MAGRLho-41" target="XHGeFI7vCAig2MAGRLho-43">
          <mxGeometry relative="1" as="geometry">
            <mxPoint x="980" y="439.5882352941177" as="targetPoint" />
          </mxGeometry>
        </mxCell>
        <mxCell id="XHGeFI7vCAig2MAGRLho-41" value="memiliki" style="rhombus;whiteSpace=wrap;html=1;" vertex="1" parent="1">
          <mxGeometry x="760" y="399.59" width="120" height="80" as="geometry" />
        </mxCell>
        <mxCell id="XHGeFI7vCAig2MAGRLho-44" style="edgeStyle=none;rounded=0;orthogonalLoop=1;jettySize=auto;html=1;exitX=0.5;exitY=0;exitDx=0;exitDy=0;" edge="1" parent="1" source="XHGeFI7vCAig2MAGRLho-43" target="XHGeFI7vCAig2MAGRLho-46">
          <mxGeometry relative="1" as="geometry">
            <mxPoint x="1029.6000211772182" y="390" as="targetPoint" />
          </mxGeometry>
        </mxCell>
        <mxCell id="XHGeFI7vCAig2MAGRLho-47" style="edgeStyle=none;rounded=0;orthogonalLoop=1;jettySize=auto;html=1;exitX=1;exitY=0.5;exitDx=0;exitDy=0;" edge="1" parent="1" source="XHGeFI7vCAig2MAGRLho-43" target="XHGeFI7vCAig2MAGRLho-48">
          <mxGeometry relative="1" as="geometry">
            <mxPoint x="1140" y="439.5882352941177" as="targetPoint" />
          </mxGeometry>
        </mxCell>
        <mxCell id="XHGeFI7vCAig2MAGRLho-50" style="edgeStyle=none;rounded=0;orthogonalLoop=1;jettySize=auto;html=1;exitX=0.5;exitY=1;exitDx=0;exitDy=0;" edge="1" parent="1" source="XHGeFI7vCAig2MAGRLho-43" target="XHGeFI7vCAig2MAGRLho-51">
          <mxGeometry relative="1" as="geometry">
            <mxPoint x="1029.4705882352941" y="510" as="targetPoint" />
          </mxGeometry>
        </mxCell>
        <mxCell id="XHGeFI7vCAig2MAGRLho-43" value="hobi" style="rounded=0;whiteSpace=wrap;html=1;" vertex="1" parent="1">
          <mxGeometry x="970" y="409.9982352941177" width="120" height="60" as="geometry" />
        </mxCell>
        <mxCell id="XHGeFI7vCAig2MAGRLho-46" value="baca buku" style="ellipse;whiteSpace=wrap;html=1;" vertex="1" parent="1">
          <mxGeometry x="970.0000211772182" y="300" width="120" height="80" as="geometry" />
        </mxCell>
        <mxCell id="XHGeFI7vCAig2MAGRLho-48" value="olahraga&lt;div&gt;gym&lt;/div&gt;" style="ellipse;whiteSpace=wrap;html=1;" vertex="1" parent="1">
          <mxGeometry x="1120" y="399.9982352941177" width="120" height="80" as="geometry" />
        </mxCell>
        <mxCell id="XHGeFI7vCAig2MAGRLho-51" value="gamers" style="ellipse;whiteSpace=wrap;html=1;" vertex="1" parent="1">
          <mxGeometry x="970.0005882352941" y="500" width="120" height="80" as="geometry" />
        </mxCell>
      </root>
    </mxGraphModel>
  </diagram>
</mxfile>
